<?xml version="1.0" standalone="no"?>
<!DOCTYPE svg PUBLIC "-//W3C//DTD SVG 20010904//EN"
 "http://www.w3.org/TR/2001/REC-SVG-20010904/DTD/svg10.dtd">
<svg version="1.0" xmlns="http://www.w3.org/2000/svg"
 width="688.000000pt" height="677.000000pt" viewBox="0 0 688.000000 677.000000"
 preserveAspectRatio="xMidYMid meet">

<g transform="translate(0.000000,677.000000) scale(0.100000,-0.100000)"
fill="#fff" stroke="none">
<path d="M3155 5786 c-155 -116 -304 -286 -397 -451 -321 -567 -190 -1251 319
-1668 66 -54 203 -140 210 -133 2 2 -5 75 -16 162 -51 387 -112 917 -107 922
6 6 22 -32 43 -103 8 -27 46 -150 84 -272 53 -171 169 -544 215 -691 6 -22 20
-11 77 60 76 96 135 204 175 321 31 89 36 117 40 223 8 224 -34 355 -250 781
-153 302 -210 428 -247 547 -26 85 -51 232 -51 304 0 35 -4 52 -12 51 -7 0
-44 -24 -83 -53z"/>
<path d="M4225 5666 c-156 -73 -274 -219 -321 -396 -21 -79 -23 -234 -5 -310
16 -67 71 -185 104 -224 l25 -28 73 38 c152 78 274 238 315 409 23 99 15 245
-19 344 -29 82 -88 185 -109 189 -7 1 -35 -9 -63 -22z"/>
<path d="M4945 5313 c-62 -383 -196 -659 -567 -1168 -322 -443 -441 -644 -521
-886 -98 -293 -88 -557 34 -870 59 -152 157 -329 182 -329 16 0 135 193 218
354 165 321 175 406 74 631 -15 33 -29 83 -32 110 -5 49 -1 60 117 295 281
563 337 656 391 643 76 -19 71 -45 -87 -401 -74 -169 -155 -351 -180 -404 -24
-54 -44 -108 -44 -121 0 -31 29 -57 63 -57 46 0 51 11 302 580 115 261 125
280 151 292 33 15 74 0 93 -33 17 -30 13 -40 -218 -558 -137 -307 -150 -351
-113 -384 26 -24 44 -21 75 11 25 26 55 88 222 473 103 235 160 353 183 372
27 24 60 18 85 -15 l20 -27 -22 -78 c-13 -43 -66 -190 -118 -328 -52 -137
-115 -306 -141 -375 -59 -158 -90 -193 -207 -234 -229 -80 -244 -92 -325 -260
-32 -66 -79 -177 -103 -246 -44 -122 -107 -328 -107 -348 0 -13 34 0 195 77
588 281 974 762 1105 1377 27 128 37 402 21 569 -27 279 -120 556 -275 818
-100 171 -277 391 -408 507 l-57 51 -6 -38z"/>
<path d="M1762 5123 c-34 -67 -47 -132 -46 -243 0 -99 4 -126 28 -195 38 -110
84 -181 166 -259 95 -89 195 -138 332 -160 l36 -7 21 56 c46 122 44 298 -5
422 -74 189 -205 313 -396 377 -90 30 -124 33 -136 9z"/>
<path d="M1071 3980 c-44 -186 -55 -302 -56 -570 0 -280 11 -387 65 -600 82
-330 274 -711 480 -955 110 -129 347 -354 455 -432 556 -397 1197 -545 1880
-432 761 125 1451 648 1786 1354 84 177 186 468 176 499 -2 5 -25 -28 -52 -75
-124 -216 -232 -354 -432 -550 -205 -202 -373 -324 -611 -443 -383 -192 -881
-290 -1304 -257 -248 19 -415 51 -613 117 -123 40 -329 143 -439 219 -132 90
-146 95 -266 95 -127 0 -171 10 -295 70 -162 78 -293 207 -374 369 -103 204
-114 369 -36 527 89 182 288 263 500 205 216 -60 414 -226 518 -436 60 -120
69 -163 74 -350 6 -194 10 -206 83 -264 201 -159 612 -329 904 -374 l29 -5 -6
137 c-13 278 -102 593 -256 898 -338 676 -987 1161 -1741 1303 -116 22 -291
40 -387 40 l-61 0 -21 -90z"/>
<path d="M1541 2665 c-1 -66 27 -163 70 -246 52 -100 163 -208 262 -257 60
-29 194 -68 203 -59 2 1 -37 25 -87 52 -56 30 -119 76 -169 122 -126 117 -164
173 -263 393 l-16 35 0 -40z"/>
</g>
</svg>
